<mxfile host="app.diagrams.net" modified="2023-11-25T21:54:09.188Z" agent="Mozilla/5.0 (Windows NT 10.0; Win64; x64) AppleWebKit/537.36 (KHTML, like Gecko) Chrome/119.0.0.0 Safari/537.36" etag="gPEBaLOrfIzu4oHbIZTj" version="22.1.4" type="device">
  <diagram name="Сторінка-1" id="Ivu4c53ZgENNI-9HWC9K">
    <mxGraphModel dx="1750" dy="922" grid="1" gridSize="10" guides="1" tooltips="1" connect="1" arrows="1" fold="1" page="0" pageScale="1" pageWidth="827" pageHeight="1169" math="0" shadow="0">
      <root>
        <mxCell id="0" />
        <mxCell id="1" parent="0" />
        <mxCell id="XjiEbkEmGLljqr_poQCl-14" style="edgeStyle=orthogonalEdgeStyle;rounded=0;orthogonalLoop=1;jettySize=auto;html=1;exitX=0.5;exitY=1;exitDx=0;exitDy=0;entryX=0.5;entryY=0;entryDx=0;entryDy=0;" edge="1" parent="1" source="XjiEbkEmGLljqr_poQCl-4" target="XjiEbkEmGLljqr_poQCl-12">
          <mxGeometry relative="1" as="geometry" />
        </mxCell>
        <mxCell id="XjiEbkEmGLljqr_poQCl-4" value="Input: n, count&amp;nbsp;" style="shape=parallelogram;html=1;strokeWidth=2;perimeter=parallelogramPerimeter;whiteSpace=wrap;rounded=1;arcSize=12;size=0.23;" vertex="1" parent="1">
          <mxGeometry x="370" y="470" width="170" height="80" as="geometry" />
        </mxCell>
        <mxCell id="XjiEbkEmGLljqr_poQCl-6" value="End" style="strokeWidth=2;html=1;shape=mxgraph.flowchart.terminator;whiteSpace=wrap;" vertex="1" parent="1">
          <mxGeometry x="396.25" y="1190" width="132.5" height="80" as="geometry" />
        </mxCell>
        <mxCell id="XjiEbkEmGLljqr_poQCl-13" style="edgeStyle=orthogonalEdgeStyle;rounded=0;orthogonalLoop=1;jettySize=auto;html=1;exitX=0.5;exitY=1;exitDx=0;exitDy=0;exitPerimeter=0;entryX=0.5;entryY=0;entryDx=0;entryDy=0;" edge="1" parent="1" source="XjiEbkEmGLljqr_poQCl-7" target="XjiEbkEmGLljqr_poQCl-4">
          <mxGeometry relative="1" as="geometry" />
        </mxCell>
        <mxCell id="XjiEbkEmGLljqr_poQCl-7" value="Start" style="strokeWidth=2;html=1;shape=mxgraph.flowchart.start_2;whiteSpace=wrap;" vertex="1" parent="1">
          <mxGeometry x="405" y="340" width="100" height="100" as="geometry" />
        </mxCell>
        <mxCell id="XjiEbkEmGLljqr_poQCl-18" value="" style="edgeStyle=orthogonalEdgeStyle;rounded=0;orthogonalLoop=1;jettySize=auto;html=1;" edge="1" parent="1" source="XjiEbkEmGLljqr_poQCl-12" target="XjiEbkEmGLljqr_poQCl-17">
          <mxGeometry relative="1" as="geometry" />
        </mxCell>
        <mxCell id="XjiEbkEmGLljqr_poQCl-12" value="&lt;div&gt;Initialize: result&amp;nbsp;&lt;/div&gt;&quot;&amp;nbsp; &quot; " style="shape=hexagon;perimeter=hexagonPerimeter2;whiteSpace=wrap;html=1;fixedSize=1;size=40;" vertex="1" parent="1">
          <mxGeometry x="370" y="570" width="170" height="90" as="geometry" />
        </mxCell>
        <mxCell id="XjiEbkEmGLljqr_poQCl-20" value="" style="edgeStyle=orthogonalEdgeStyle;rounded=0;orthogonalLoop=1;jettySize=auto;html=1;" edge="1" parent="1" source="XjiEbkEmGLljqr_poQCl-17" target="XjiEbkEmGLljqr_poQCl-19">
          <mxGeometry relative="1" as="geometry" />
        </mxCell>
        <mxCell id="XjiEbkEmGLljqr_poQCl-23" value="" style="edgeStyle=orthogonalEdgeStyle;rounded=0;orthogonalLoop=1;jettySize=auto;html=1;" edge="1" parent="1" source="XjiEbkEmGLljqr_poQCl-17" target="XjiEbkEmGLljqr_poQCl-22">
          <mxGeometry relative="1" as="geometry">
            <Array as="points">
              <mxPoint x="300" y="733" />
              <mxPoint x="300" y="910" />
              <mxPoint x="463" y="910" />
            </Array>
          </mxGeometry>
        </mxCell>
        <mxCell id="XjiEbkEmGLljqr_poQCl-17" value="While n &amp;gt; 0:" style="rhombus;whiteSpace=wrap;html=1;" vertex="1" parent="1">
          <mxGeometry x="402.5" y="695" width="105" height="75" as="geometry" />
        </mxCell>
        <mxCell id="XjiEbkEmGLljqr_poQCl-21" style="edgeStyle=orthogonalEdgeStyle;rounded=0;orthogonalLoop=1;jettySize=auto;html=1;exitX=1;exitY=0.5;exitDx=0;exitDy=0;entryX=1;entryY=0.5;entryDx=0;entryDy=0;" edge="1" parent="1" source="XjiEbkEmGLljqr_poQCl-19" target="XjiEbkEmGLljqr_poQCl-17">
          <mxGeometry relative="1" as="geometry">
            <Array as="points">
              <mxPoint x="610" y="850" />
              <mxPoint x="610" y="733" />
            </Array>
          </mxGeometry>
        </mxCell>
        <mxCell id="XjiEbkEmGLljqr_poQCl-19" value="Append n % 8 to result&lt;br&gt;Divide n by 8" style="whiteSpace=wrap;html=1;" vertex="1" parent="1">
          <mxGeometry x="397.5" y="820" width="115" height="60" as="geometry" />
        </mxCell>
        <mxCell id="XjiEbkEmGLljqr_poQCl-25" value="" style="edgeStyle=orthogonalEdgeStyle;rounded=0;orthogonalLoop=1;jettySize=auto;html=1;" edge="1" parent="1" source="XjiEbkEmGLljqr_poQCl-22" target="XjiEbkEmGLljqr_poQCl-24">
          <mxGeometry relative="1" as="geometry" />
        </mxCell>
        <mxCell id="XjiEbkEmGLljqr_poQCl-27" value="" style="edgeStyle=orthogonalEdgeStyle;rounded=0;orthogonalLoop=1;jettySize=auto;html=1;" edge="1" parent="1" source="XjiEbkEmGLljqr_poQCl-22" target="XjiEbkEmGLljqr_poQCl-26">
          <mxGeometry relative="1" as="geometry" />
        </mxCell>
        <mxCell id="XjiEbkEmGLljqr_poQCl-22" value="If count &amp;gt; length(result):" style="rhombus;whiteSpace=wrap;html=1;" vertex="1" parent="1">
          <mxGeometry x="402.5" y="950" width="120" height="80" as="geometry" />
        </mxCell>
        <mxCell id="XjiEbkEmGLljqr_poQCl-24" value="Prepend count - length(result) &#39;0&#39; characters to result" style="whiteSpace=wrap;html=1;" vertex="1" parent="1">
          <mxGeometry x="602.5" y="960" width="120" height="60" as="geometry" />
        </mxCell>
        <mxCell id="XjiEbkEmGLljqr_poQCl-26" value="Return result" style="whiteSpace=wrap;html=1;" vertex="1" parent="1">
          <mxGeometry x="202.5" y="960" width="120" height="60" as="geometry" />
        </mxCell>
        <mxCell id="XjiEbkEmGLljqr_poQCl-32" value="Output:&lt;br&gt;result" style="shape=parallelogram;html=1;strokeWidth=2;perimeter=parallelogramPerimeter;whiteSpace=wrap;rounded=1;arcSize=12;size=0.23;" vertex="1" parent="1">
          <mxGeometry x="378.75" y="1090" width="167.5" height="70" as="geometry" />
        </mxCell>
        <mxCell id="XjiEbkEmGLljqr_poQCl-33" style="edgeStyle=orthogonalEdgeStyle;rounded=0;orthogonalLoop=1;jettySize=auto;html=1;exitX=0.5;exitY=1;exitDx=0;exitDy=0;entryX=0.5;entryY=0;entryDx=0;entryDy=0;entryPerimeter=0;" edge="1" parent="1" source="XjiEbkEmGLljqr_poQCl-32" target="XjiEbkEmGLljqr_poQCl-6">
          <mxGeometry relative="1" as="geometry" />
        </mxCell>
        <mxCell id="XjiEbkEmGLljqr_poQCl-34" style="edgeStyle=orthogonalEdgeStyle;rounded=0;orthogonalLoop=1;jettySize=auto;html=1;exitX=0.5;exitY=1;exitDx=0;exitDy=0;entryX=0.559;entryY=-0.054;entryDx=0;entryDy=0;entryPerimeter=0;" edge="1" parent="1" source="XjiEbkEmGLljqr_poQCl-26" target="XjiEbkEmGLljqr_poQCl-32">
          <mxGeometry relative="1" as="geometry" />
        </mxCell>
        <mxCell id="XjiEbkEmGLljqr_poQCl-35" style="edgeStyle=orthogonalEdgeStyle;rounded=0;orthogonalLoop=1;jettySize=auto;html=1;exitX=0.5;exitY=1;exitDx=0;exitDy=0;entryX=0.559;entryY=-0.031;entryDx=0;entryDy=0;entryPerimeter=0;" edge="1" parent="1" source="XjiEbkEmGLljqr_poQCl-24" target="XjiEbkEmGLljqr_poQCl-32">
          <mxGeometry relative="1" as="geometry" />
        </mxCell>
      </root>
    </mxGraphModel>
  </diagram>
</mxfile>
